<svg width="98" height="99" viewBox="0 0 98 99" fill="none" xmlns="http://www.w3.org/2000/svg">
<path fill-rule="evenodd" clip-rule="evenodd" d="M5.46193 26.6801C5.46193 28.199 4.24125 29.4308 2.73084 29.4308C1.22281 29.4308 0.00213737 28.199 0.00213737 26.6801V13.7903C0.00213737 6.39458 5.97252 0.378998 13.3156 0.378998H26.3654C27.8758 0.378998 29.0988 1.61082 29.0988 3.12966C29.0988 4.64851 27.8758 5.88033 26.3654 5.88033H13.3156C8.98621 5.88033 5.46193 9.42749 5.46193 13.7903V26.6801ZM84.684 0.378998H71.8859C70.3778 0.378998 69.1548 1.61082 69.1548 3.12966C69.1548 4.64851 70.3778 5.88033 71.8859 5.88033H84.684C89.0157 5.88033 92.54 9.42749 92.54 13.7903V26.9361C92.54 28.4549 93.7607 29.6844 95.2687 29.6844C96.7791 29.6844 97.9998 28.4549 97.9998 26.9361V13.7903C97.9998 6.39458 92.027 0.378998 84.684 0.378998ZM24.4152 43.8479V36.1054C24.4152 34.1225 26.0087 32.5175 27.9774 32.5175C29.9462 32.5175 31.5397 34.1225 31.5397 36.1054V43.8479C31.5397 45.8308 29.9462 47.4357 27.9774 47.4357C26.0087 47.4357 24.4152 45.8308 24.4152 43.8479ZM73.5856 43.8486C73.5856 45.8315 71.992 47.4364 70.0233 47.4364C68.0545 47.4364 66.461 45.8315 66.461 43.8486V36.1061C66.461 34.1232 68.0545 32.5183 70.0233 32.5183C71.992 32.5183 73.5856 34.1232 73.5856 36.1061V43.8486ZM43.6529 62.1032H45.3818C49.8109 62.1032 53.4112 58.4747 53.4112 54.0139V35.4696C53.4112 33.9508 52.1905 32.7189 50.6825 32.7189C49.1721 32.7189 47.9514 33.9508 47.9514 35.4696V54.0139C47.9514 55.4394 46.7972 56.6019 45.3818 56.6019H43.6529C42.1425 56.6019 40.9218 57.8337 40.9218 59.3526C40.9218 60.8714 42.1425 62.1032 43.6529 62.1032ZM49.0365 74.319C54.6411 74.319 59.937 72.2261 62.8557 68.8608C63.8508 67.7174 65.5773 67.6002 66.7101 68.5977C67.8477 69.5975 67.9617 71.3364 66.969 72.4797C62.9863 77.0769 56.2798 79.8204 49.0365 79.8204C41.729 79.8204 34.9963 77.0386 31.0184 72.384C30.0329 71.2311 30.1611 69.4946 31.3058 68.5044C32.4457 67.5141 34.1722 67.6433 35.1578 68.7962C38.067 72.2022 43.3867 74.319 49.0365 74.319ZM95.2689 69.0732C93.7609 69.0732 92.5402 70.305 92.5402 71.8238V84.9672C92.5402 89.33 89.0159 92.8772 84.6842 92.8772H71.8861C70.3781 92.8772 69.155 94.109 69.155 95.6279C69.155 97.1467 70.3781 98.3785 71.8861 98.3785H84.6842C92.0272 98.3785 98 92.3629 98 84.9672V71.8238C98 70.305 96.7793 69.0732 95.2689 69.0732ZM13.3158 92.8777H26.3656C27.876 92.8777 29.0967 94.1095 29.0967 95.6283C29.0967 97.1472 27.876 98.379 26.3656 98.379H13.3158C5.97276 98.379 0 92.3634 0 84.9677V72.0779C0 70.559 1.22305 69.3272 2.73108 69.3272C4.24149 69.3272 5.46216 70.559 5.46216 72.0779V84.9677C5.46216 89.3305 8.98645 92.8777 13.3158 92.8777Z" fill="#007AFF"/>
</svg>
